<svg width="95" height="80" viewBox="0 0 95 80" fill="none" xmlns="http://www.w3.org/2000/svg">
    <path d="M25.2448 11.768C27.3384 6.36928 32.417 2.71164 38.201 2.43699L41.138 2.29753C52.0652 1.77865 61.2085 10.498 61.2085 21.4375V29.9126L69.243 57.3225H61.2085V60.5042C61.2085 70.9001 52.7809 79.3277 42.385 79.3277H41.0076C30.6116 79.3277 22.1841 70.9001 22.1841 60.5042V57.3225M22.1841 32.615V42.2664V32.615Z" stroke="#151C20"/>
    <path d="M58.9263 12.2027H62.1441C64.9911 12.2027 67.2968 14.5158 67.2867 17.3629C67.2773 20.2604 64.8767 22.5779 61.9807 22.4859L61.2469 22.4625M34.1732 12.0112H15.7167C12.826 12.0112 10.4797 14.3496 10.47 17.2403C10.4603 20.1284 12.7864 22.4813 15.6744 22.5047L34.1732 22.654V12.0112Z" stroke="#151C20" stroke-linecap="round"/>
    <path d="M61.2468 22.6166H61.645C64.3619 22.6166 66.5646 24.8185 66.5656 27.5353L66.5657 27.9106C66.5666 30.4217 64.5314 32.4577 62.0203 32.4577M34.1732 22.6059L17.4386 22.6003C14.7197 22.5994 12.5154 24.8038 12.5164 27.5226C12.5174 30.2388 14.7191 32.4405 17.4353 32.4414L34.1768 32.4469L34.1732 22.6059Z" stroke="#151C20" stroke-linecap="round" stroke-linejoin="round"/>
    <path d="M57.379 43.1153H64.8731" stroke="#151C20" stroke-linecap="round" stroke-linejoin="round"/>
    <path d="M29.5791 45.832C28.2031 43.736 25.8391 42.353 23.1537 42.353C18.9054 42.353 15.4614 45.8143 15.4614 50.0841C15.4614 54.3538 18.9054 57.8152 23.1537 57.8152C25.4932 57.8152 27.5887 56.7655 28.9995 55.1093" stroke="#151C20" stroke-linecap="round" stroke-linejoin="round"/>
    <path d="M49.411 49.7479C53.6808 49.7479 57.1421 46.2866 57.1421 42.0168C57.1421 37.747 53.6808 34.2857 49.411 34.2857C45.1413 34.2857 41.6799 37.747 41.6799 42.0168C41.6799 46.2866 45.1413 49.7479 49.411 49.7479Z" stroke="#151C20"/>
    <path d="M54.453 46.3866C59.651 46.3866 63.8648 42.1728 63.8648 36.9748C63.8648 31.7768 59.651 27.563 54.453 27.563C49.2551 27.563 45.0413 31.7768 45.0413 36.9748C45.0413 42.1728 49.2551 46.3866 54.453 46.3866Z" fill="#54B454" fill-opacity="0.1"/>
    <path d="M76.6379 47.0588C81.4646 47.0588 85.3774 42.845 85.3774 37.6471C85.3774 32.4491 81.4646 28.2353 76.6379 28.2353C71.8112 28.2353 67.8984 32.4491 67.8984 37.6471C67.8984 42.845 71.8112 47.0588 76.6379 47.0588Z" fill="#54B454" fill-opacity="0.1"/>
    <path d="M71.3976 49.7479C75.7768 49.7479 79.327 46.2866 79.327 42.0168C79.327 37.747 75.7768 34.2857 71.3976 34.2857C67.9879 34.2857 65.0814 36.3837 63.9611 39.3277L66.5538 48.1382C67.8938 49.1474 69.5738 49.7479 71.3976 49.7479Z" stroke="#151C20" stroke-linecap="round"/>
</svg>
