<svg width="96" height="80" viewBox="0 0 96 80" fill="none" xmlns="http://www.w3.org/2000/svg">
    <path d="M68.9817 73.0156L86.2699 57.7611L65.5916 55.3892L49.4907 53.5029L25.9307 67.5916L68.9817 73.0156Z" fill="#54B454" fill-opacity="0.1"/>
    <path d="M23.05 29.8305V47.7589L42.0331 69.1525L60.3382 47.7589V29.8305" stroke="#151C20" stroke-linecap="round"/>
    <path d="M32.8806 43.7288V15.5932" stroke="#151C20" stroke-linecap="round"/>
    <path d="M50.1687 43.7288V15.5932" stroke="#151C20" stroke-linecap="round"/>
    <path d="M42.0332 40V1.35596" stroke="#151C20" stroke-linecap="round"/>
    <path d="M48.1349 61.3559C45.762 57.9661 37.9654 57.9661 35.5925 61.3559" stroke="#151C20" stroke-linecap="round"/>
    <path d="M60.3382 43.3898C59.3212 47.7966 52.5416 48.4746 50.1687 43.3898C47.1178 49.8305 35.2534 49.4915 32.8806 43.3898C31.5246 48.1356 23.389 47.4576 23.05 43.3898" stroke="#151C20" stroke-linecap="round"/>
    <path d="M33.2196 58.9841L10.8467 71.1864L53.8975 76.6102L71.1858 61.3559L50.5077 58.9841" stroke="#151C20"/>
</svg>