<svg width="490" height="412" viewBox="0 0 490 412" fill="none" xmlns="http://www.w3.org/2000/svg">
<g clip-path="url(#clip0)">
<path d="M103.345 68.683L35.7067 379.035" stroke="#0B4651" stroke-width="1.67161" stroke-linecap="round" stroke-linejoin="round"/>
<path d="M76.2898 83.1854L100.446 393.538" stroke="#0B4651" stroke-width="1.67161" stroke-linecap="round" stroke-linejoin="round"/>
<path d="M186.444 83.1854L210.6 393.538" stroke="#0B4651" stroke-width="1.67161" stroke-linecap="round" stroke-linejoin="round"/>
<path fill-rule="evenodd" clip-rule="evenodd" d="M48.2681 8.73938H220.773L237.656 242.712H65.1507L48.2681 8.73938Z" fill="#33BAAA"/>
<path d="M215.432 69.1665C215.432 52.8805 202.237 39.6781 185.961 39.6781C169.684 39.6781 156.49 52.8805 156.49 69.1665C156.49 85.4524 169.684 98.6548 185.961 98.6548" stroke="white" stroke-width="2.22881" stroke-linecap="round" stroke-linejoin="round"/>
<path d="M183.545 94.7873L186.444 98.8063L183.545 102.522" stroke="white" stroke-width="1.67161" stroke-linecap="round" stroke-linejoin="round"/>
<path fill-rule="evenodd" clip-rule="evenodd" d="M85.9523 148.93L90.268 199.205H104.311L100.09 148.93H85.9523Z" fill="#0B4651"/>
<path fill-rule="evenodd" clip-rule="evenodd" d="M156.49 167.3L159.71 198.238H173.882L170.757 167.3H156.49Z" fill="white"/>
<path fill-rule="evenodd" clip-rule="evenodd" d="M110.109 171.167L112.808 198.238H126.535L123.903 171.167H110.109Z" fill="white"/>
<path fill-rule="evenodd" clip-rule="evenodd" d="M135.232 184.703L136.756 198.238H149.726L148.264 184.703H135.232Z" fill="#0B4651"/>
<path d="M69.5259 49.8296H120.438" stroke="white" stroke-width="5.01483" stroke-linecap="round" stroke-linejoin="round"/>
<path d="M68.5596 68.1993H99.1784" stroke="white" stroke-width="1.67161" stroke-linecap="round" stroke-linejoin="round"/>
<path d="M178.714 64.3322H193.868" stroke="#AAE6A6" stroke-width="1.67161" stroke-linecap="round" stroke-linejoin="round"/>
<path d="M178.714 70.1331H185.177" stroke="#AAE6A6" stroke-width="1.67161" stroke-linecap="round" stroke-linejoin="round"/>
<path d="M178.714 76.9008H201.601" stroke="#AAE6A6" stroke-width="1.67161" stroke-linecap="round" stroke-linejoin="round"/>
<path d="M70.4922 84.6353H95.3257" stroke="white" stroke-width="1.67161" stroke-linecap="round" stroke-linejoin="round"/>
<path d="M73.3909 102.039H131.367" stroke="white" stroke-width="1.67161" stroke-linecap="round" stroke-linejoin="round"/>
<path opacity="0.1" fill-rule="evenodd" clip-rule="evenodd" d="M63.7283 226.277H204.487L205.769 238.846H65.0106L63.7283 226.277Z" fill="#0B4651"/>
<path d="M164.703 228.21H142.479C139.544 228.21 137.164 230.591 137.164 233.528C137.164 236.465 139.544 238.845 142.479 238.845H164.703C167.638 238.845 170.017 236.465 170.017 233.528C170.017 230.591 167.638 228.21 164.703 228.21Z" fill="white"/>
<path fill-rule="evenodd" clip-rule="evenodd" d="M61.7958 232.077H202.554L203.836 244.646H63.0781L61.7958 232.077Z" fill="#7DD977"/>
<path fill-rule="evenodd" clip-rule="evenodd" d="M195.438 374.201C185.673 376.935 180.754 378.751 180.682 379.65C180.61 380.549 180.646 381.633 180.79 382.903H204.803L203.949 374.201H195.438Z" fill="#0B4651"/>
<path fill-rule="evenodd" clip-rule="evenodd" d="M231.996 374.201C224.272 377.007 220.373 378.848 220.3 379.726C220.226 380.604 220.263 381.663 220.409 382.903L241.521 382.699L240.652 374.201H231.996Z" fill="#0B4651"/>
<path fill-rule="evenodd" clip-rule="evenodd" d="M246.26 133.46C258.704 162.552 264.117 179.644 262.499 184.737C260.882 189.829 257.49 194.974 252.322 200.172L239.588 137.504L246.26 133.46Z" fill="#0B4651"/>
<path fill-rule="evenodd" clip-rule="evenodd" d="M194.174 231.111V375.197L203.697 376.802C209.666 349.884 212.65 328.079 212.65 311.385C217.595 295.211 221.719 276.307 225.02 254.675C226.954 315.512 228.688 355.686 230.223 375.197C232.878 376.971 236.423 377.506 240.856 376.802L251.183 236.047L194.174 231.111Z" fill="url(#paint0_linear)"/>
<path fill-rule="evenodd" clip-rule="evenodd" d="M203.576 84.1779C200.791 95.1639 199.863 100.843 200.791 101.214C201.719 101.585 202.183 102.789 202.183 104.824L207.42 118.867H214.689L212.759 133.377H230.48L226.974 108.777L214.689 86.0635L203.576 84.1779Z" fill="#FFD7B3"/>
<path fill-rule="evenodd" clip-rule="evenodd" d="M213.712 69.2535C227.168 70.4317 234.256 73.9582 234.976 79.8328C236.055 88.6448 241.475 85.7956 239.672 93.9195C237.87 102.043 234.339 116.129 227.917 116.109C221.495 116.09 213.112 105.309 215.396 99.9461C219.222 90.9618 213.032 90.8959 212.415 95.3043C211.798 99.7127 213.87 114.639 212.415 118.497C211.444 121.069 208.951 121.42 204.935 119.552C201.634 109.813 200.873 104.419 202.653 103.372C205.322 101.8 209.681 106.131 209.829 102.185C209.927 99.5552 209.379 94.8419 208.185 88.0452C198.872 86.1129 196.212 82.4979 200.205 77.2001C204.199 71.9024 208.701 69.2535 213.712 69.2535Z" fill="#0B4651"/>
<path fill-rule="evenodd" clip-rule="evenodd" d="M143.557 118.446C141.663 115.287 140.745 113.509 140.802 113.112C140.888 112.517 139.67 102.161 135.555 100.364C132.811 99.1657 129.695 98.5667 126.206 98.5667C124.379 105.889 124.379 110.525 126.206 112.475C128.032 114.425 130.637 115.832 134.019 116.696L137.735 123.423L143.557 118.446Z" fill="#FFD7B3"/>
<path d="M129.587 101.337L135.936 97.0128" stroke="white" stroke-width="1.67161" stroke-linecap="round" stroke-linejoin="round"/>
<path fill-rule="evenodd" clip-rule="evenodd" d="M200.275 128.194C216.27 121.724 225.17 124.195 233.81 126.717C239.569 128.399 243.701 130.689 246.204 133.587L254.414 205.655L256.015 239.26C246.017 242.206 236.083 243.679 226.214 243.679C216.345 243.679 204.717 242.937 191.331 241.453L196.533 154.955L174.727 172.571C170.794 175.748 165.032 175.134 161.856 171.199C161.538 170.805 161.254 170.386 161.005 169.945L136.066 125.703C134.359 122.675 135.337 118.839 138.286 117C141.198 115.184 145.031 116.072 146.849 118.984L167.698 152.388C168.171 153.145 169.167 153.376 169.924 152.903C170.039 152.831 170.144 152.745 170.238 152.647C184.001 138.194 194.013 130.043 200.275 128.194Z" fill="#0B4651"/>
<path d="M459.104 65.7827H323.031C320.652 65.7827 318.724 67.7123 318.724 70.0925V164.768C318.724 167.148 320.652 169.078 323.031 169.078H459.104C461.483 169.078 463.411 167.148 463.411 164.768V70.0925C463.411 67.7123 461.483 65.7827 459.104 65.7827Z" fill="#C9F0EB"/>
<path opacity="0.23" d="M343.247 104.518V125.225" stroke="#0B4651" stroke-width="0.835805" stroke-linecap="round" stroke-linejoin="round"/>
<path opacity="0.23" d="M344.474 116.121H359.112V102.673H367.006" stroke="#0B4651" stroke-width="0.835805" stroke-linecap="round" stroke-linejoin="round"/>
<path fill-rule="evenodd" clip-rule="evenodd" d="M409.46 142.639H433.983V153.091H409.46V142.639Z" fill="white"/>
<path opacity="0.23" d="M407 114.872V137.514H444.19V106.768" stroke="#0B4651" stroke-width="0.835805" stroke-linecap="round" stroke-linejoin="round"/>
<path d="M351.83 81.7681H335.89V100.214H351.83V81.7681Z" fill="white"/>
<path d="M350.604 129.727H334.664V148.172H350.604V129.727Z" fill="#5EC48E"/>
<path opacity="0.4" fill-rule="evenodd" clip-rule="evenodd" d="M369.963 91.6096L385.879 92.4413L384.911 110.859L368.995 110.028L369.963 91.6096Z" fill="#33BAAA"/>
<path fill-rule="evenodd" clip-rule="evenodd" d="M399.391 91.6096L415.307 92.4413L414.339 110.859L398.423 110.028L399.391 91.6096Z" fill="#33BAAA"/>
<path opacity="0.9" fill-rule="evenodd" clip-rule="evenodd" d="M432.503 83.2921L448.194 80.5334L451.404 98.6903L435.713 101.449L432.503 83.2921Z" fill="white"/>
<path opacity="0.23" d="M389.268 101.803H394.961" stroke="#0B4651" stroke-width="0.835805" stroke-linecap="round" stroke-linejoin="round"/>
<path fill-rule="evenodd" clip-rule="evenodd" d="M383.006 266.618C368.129 270.114 353.999 287.065 360.293 300.909C364.488 310.139 370.302 314.754 377.733 314.754L385.671 264.098C393.813 263.448 392.924 264.288 383.006 266.618Z" fill="url(#paint1_linear)"/>
<path d="M373.269 319.443L360.414 379.412" stroke="#0B4651" stroke-width="1.67161" stroke-linecap="round" stroke-linejoin="round"/>
<path d="M430.918 314.22C430.768 313.733 432.46 312.718 432.945 312.567C433.43 312.416 433.945 312.689 434.095 313.175L454.48 379.139C454.631 379.625 454.359 380.142 453.874 380.293C453.389 380.443 452.874 380.171 452.724 379.685L430.918 314.22Z" fill="#0B4651"/>
<path fill-rule="evenodd" clip-rule="evenodd" d="M359.162 320.802L348.948 373.677L355.585 374.771L374.74 323.32L359.162 320.802Z" fill="#FFD7B3"/>
<path fill-rule="evenodd" clip-rule="evenodd" d="M388.358 323.295L413.648 377.095H421.473L408.88 324.142C416.633 316.589 416.633 312.159 408.88 310.851C397.785 309.071 390.944 313.219 388.358 323.295Z" fill="#FFD7B3"/>
<path fill-rule="evenodd" clip-rule="evenodd" d="M394.805 276.216C388.391 276.111 384.934 276.111 384.433 276.216C372.762 278.658 366.498 288.28 364.173 293.576C361.699 299.214 359.685 308.044 358.133 320.067C365.837 323.5 371.39 325.429 374.789 325.856C387.888 327.498 401.231 326.596 414.819 323.147L412.762 312.737C418.826 310.085 424.137 305.518 428.696 299.036C433.254 292.554 431.674 283.918 423.955 273.126L394.805 276.216Z" fill="#0B4651"/>
<path fill-rule="evenodd" clip-rule="evenodd" d="M375.768 156.325C368.314 174.377 367.427 185.371 373.109 189.307C381.106 194.847 378.442 204.036 379.968 204.16C381.288 204.267 399.075 204.999 399.497 197.894C399.585 196.419 394.034 192.446 382.845 185.976L375.768 156.325Z" fill="#0B4651"/>
<path fill-rule="evenodd" clip-rule="evenodd" d="M389.593 197.403C386.071 194.788 381.372 195.216 375.497 198.687C370.324 201.743 367.24 213.463 365.398 235.04C365.289 236.32 343.447 239.101 342.915 241.269C342.685 242.206 342.685 244.738 342.915 248.866H379.418L382.156 277.049C391.979 279.871 401.15 280.723 409.669 279.604C418.187 278.485 424.175 277.318 427.633 276.103L423.529 251.73L437.81 250.705L427.633 218.844L421.613 199.997L401.271 191.087L389.593 197.403Z" fill="#7DD977"/>
<path fill-rule="evenodd" clip-rule="evenodd" d="M412.871 311.137C415.595 309.005 417.119 305.876 417.444 301.752C417.93 295.565 417.076 278.773 426.005 271.81C424.642 262.198 424.642 256.039 426.005 253.334L441.085 252.439C455.916 298.496 446.512 322.174 412.871 323.471C409.663 319.785 409.663 315.674 412.871 311.137Z" fill="url(#paint2_linear)"/>
<path fill-rule="evenodd" clip-rule="evenodd" d="M425.189 272.654L434.387 267.542L438.301 265.488L439.297 262.538L436.017 253.928H423.604L425.189 272.654Z" fill="url(#paint3_linear)"/>
<path fill-rule="evenodd" clip-rule="evenodd" d="M405.413 225.454C403.972 222.199 402.968 219.344 402.4 216.888C401.732 214.003 399.427 211.056 398.703 212.378C398.221 213.259 398.221 214.763 398.703 216.888C392.093 213.285 388.203 211.782 387.035 212.378C385.281 213.272 385.973 221.657 390.084 223.097C392.824 224.056 396.147 226.66 400.053 230.908C400.605 228.645 401.105 227.284 401.553 226.824C402.002 226.365 403.288 225.908 405.413 225.454Z" fill="#FFD7B3"/>
<path fill-rule="evenodd" clip-rule="evenodd" d="M387.332 182.911V199.835C387.192 207.045 388.993 210.65 392.733 210.65C396.473 210.65 399.166 206.054 400.812 196.863L403.386 179.579L387.332 182.911Z" fill="#FFD7B3"/>
<path d="M18.5366 379.356H490.333" stroke="#0B4651" stroke-width="0.855"/>
<path d="M191.021 250.238L171.584 384.11" stroke="#4AC09B" stroke-width="2.78602" stroke-linecap="round" stroke-linejoin="round"/>
<path d="M456.667 250.238L476.104 384.11" stroke="#4AC09B" stroke-width="2.78602" stroke-linecap="round" stroke-linejoin="round"/>
<path fill-rule="evenodd" clip-rule="evenodd" d="M223.394 194.901H288.622C290.382 194.901 291.908 196.12 292.297 197.838L301.74 239.484C302.2 241.515 300.928 243.535 298.898 243.996C298.624 244.058 298.345 244.089 298.064 244.089H232.837C231.076 244.089 229.551 242.87 229.161 241.152L219.719 199.507C219.258 197.475 220.53 195.455 222.56 194.995C222.834 194.933 223.113 194.901 223.394 194.901Z" fill="#7DD977"/>
<path fill-rule="evenodd" clip-rule="evenodd" d="M223.844 198.283H287.995L297.614 240.707H233.463L223.844 198.283Z" fill="white"/>
<path opacity="0.1" fill-rule="evenodd" clip-rule="evenodd" d="M255.691 195.198C266.971 209.723 276.965 216.384 285.672 215.181C294.38 213.978 300.125 218.999 302.908 230.242L301.303 251.88H254.736L240.347 195.198H255.691Z" fill="#0B4651"/>
<path d="M294.81 244.089H231.671C230.653 244.089 229.827 244.915 229.827 245.934C229.827 246.953 230.653 247.778 231.671 247.778H294.81C295.828 247.778 296.653 246.953 296.653 245.934C296.653 244.915 295.828 244.089 294.81 244.089Z" fill="#277A5E"/>
<path fill-rule="evenodd" clip-rule="evenodd" d="M245.091 192.476L243.288 187.749C241.438 187.433 240.014 186.612 239.018 185.285C237.523 183.295 238.85 172.98 241.948 172.077C239.226 167.998 239.086 165.266 240.103 164.293C241.12 163.319 250.084 177.97 252.335 191.157C253.836 199.949 251.421 200.388 245.091 192.476Z" fill="#FFD7B3"/>
<path d="M472.906 247.779H167.607C165.741 247.779 164.227 249.293 164.227 251.161C164.227 253.028 165.741 254.542 167.607 254.542H472.906C474.773 254.542 476.286 253.028 476.286 251.161C476.286 249.293 474.773 247.779 472.906 247.779Z" fill="#0B4651"/>
<path fill-rule="evenodd" clip-rule="evenodd" d="M280.534 379.356C280.534 379.356 266.685 387.255 268.361 390.862C269.351 392.995 274.978 393.873 285.239 393.497V393.497C287.555 393.412 289.389 391.508 289.389 389.19V379.356C283.486 379.356 280.534 379.356 280.534 379.356Z" fill="url(#paint4_linear)"/>
<path fill-rule="evenodd" clip-rule="evenodd" d="M263.995 319.562L279.172 378.814C279.775 381.168 281.895 382.814 284.324 382.814C286.603 382.814 288.451 380.966 288.451 378.685V311.669L263.995 319.562Z" fill="#0B4651"/>
<path fill-rule="evenodd" clip-rule="evenodd" d="M203.286 381.816C203.286 381.816 181.301 385.999 182.518 390.611C183 392.439 187.379 395.751 198.808 395.751C201.695 395.751 204.934 395.46 208.523 394.876H208.523C210.608 394.538 212.14 392.736 212.14 390.622V384.154C206.237 382.595 203.286 381.816 203.286 381.816Z" fill="url(#paint5_linear)"/>
<path fill-rule="evenodd" clip-rule="evenodd" d="M326.459 291.803L254.344 287.299C244.995 286.715 236.34 292.245 232.937 300.979L201.549 381.542C200.663 383.815 201.787 386.377 204.059 387.264C204.188 387.314 204.319 387.358 204.452 387.396C207.201 388.18 210.131 387.007 211.581 384.543L245.109 327.583C249.301 320.462 257.738 317.032 265.705 319.209L308.827 330.992L326.459 291.803Z" fill="#0B4651"/>
<path fill-rule="evenodd" clip-rule="evenodd" d="M341.302 204.596C341.694 204.168 342.758 205.084 344.494 207.344C348.668 212.78 356.954 233.166 351.667 239.419C345.891 246.251 338.344 244.695 329.026 234.751L341.302 204.596Z" fill="url(#paint6_linear)"/>
<path fill-rule="evenodd" clip-rule="evenodd" d="M308.845 189.443V205.256L324.072 203.409L320.565 184.382L308.845 189.443Z" fill="#FFD7B3"/>
<path fill-rule="evenodd" clip-rule="evenodd" d="M293.439 165.903C291 179.106 292.197 187.702 297.031 191.691C304.282 197.674 322.211 193.599 326.95 190.346C330.11 188.178 318.94 180.03 293.439 165.903Z" fill="#FFD7B3"/>
<path fill-rule="evenodd" clip-rule="evenodd" d="M293.084 172.094C287.087 174.977 286.125 166.11 290.059 166.11C286.987 156.013 292.297 144.475 304.431 143.103C326.727 140.58 322.445 157.308 331.005 155.491C338.325 153.937 341.494 162.761 338.163 171.234C336.746 174.836 333.995 177.296 331.005 182.103C332.018 182.103 333.902 184.612 332.61 187.151C331.576 189.181 329.337 190.694 327.306 189.658C328.341 194.791 310.915 197.34 305.74 178.868C299.944 174.861 297.988 179.99 293.084 172.094Z" fill="#0B4651"/>
<path fill-rule="evenodd" clip-rule="evenodd" d="M305.6 179.035V172.453C305.6 164.955 310.958 158.53 318.331 157.188L328.129 155.404L324.461 151.534L314.533 153.8C307.51 155.402 302.194 161.159 301.151 168.29L300.991 169.383C300.991 172.485 299.504 175.398 296.992 177.216L296.359 177.674L305.6 179.035Z" fill="url(#paint7_linear)"/>
<path d="M325.898 153.366C324.211 153.751 321.679 154.329 318.304 155.099C310.1 156.971 303.983 163.914 303.088 172.37L302.243 180.355" stroke="white" stroke-width="0.501483" stroke-linecap="round" stroke-linejoin="round"/>
<path fill-rule="evenodd" clip-rule="evenodd" d="M302.029 187.118C304.914 187.118 307.252 184.255 307.252 180.724C307.252 177.193 304.914 174.33 302.029 174.33C301.2 174.33 300.207 174.33 299.048 174.33C297.553 177.253 296.805 179.384 296.805 180.724C296.805 182.397 297.553 184.529 299.048 187.118C300.479 187.118 301.472 187.118 302.029 187.118Z" fill="url(#paint8_linear)"/>
<path d="M299.279 187.118C302.164 187.118 304.503 184.255 304.503 180.724C304.503 177.193 302.164 174.33 299.279 174.33C296.394 174.33 294.055 177.193 294.055 180.724C294.055 184.255 296.394 187.118 299.279 187.118Z" fill="url(#paint9_linear)"/>
<path d="M299.279 183.226C300.342 183.226 301.204 182.106 301.204 180.724C301.204 179.342 300.342 178.222 299.279 178.222C298.216 178.222 297.355 179.342 297.355 180.724C297.355 182.106 298.216 183.226 299.279 183.226Z" fill="white"/>
<path fill-rule="evenodd" clip-rule="evenodd" d="M309.608 202.458C315.181 204.818 319.699 204.818 323.163 202.458C326.627 200.097 332.651 200.771 341.234 204.48L351.86 291.061L301.571 299.963C291.975 297.678 287.11 295.293 286.976 292.807C286.672 287.158 288.366 282.229 292.056 278.018C295.556 272.569 296.453 257.066 294.747 231.51L268.478 236.483C261.295 237.843 254.275 233.443 252.364 226.382L244.08 195.772C243.283 192.826 244.41 189.695 246.902 187.934C248.847 186.56 251.537 187.024 252.91 188.97C253.046 189.162 253.165 189.364 253.268 189.576L264.465 212.673C266.542 216.956 271.695 218.744 275.976 216.666C276.294 216.512 276.603 216.338 276.9 216.145L286.824 209.712C293.269 205.535 300.671 203.068 308.332 202.545L309.608 202.458Z" fill="url(#paint10_linear)"/>
<path opacity="0.34" fill-rule="evenodd" clip-rule="evenodd" d="M305.065 202.699C304.161 215.213 307.072 222.32 313.796 224.02C323.882 226.569 319.962 240.292 331.558 238.373C343.154 236.453 338.796 205.676 332.229 202.699C328.749 202.745 326.305 202.425 324.897 201.738L320.709 204.459L312.107 205.285L308.433 203.762L305.065 202.699Z" fill="#0B4651"/>
<path fill-rule="evenodd" clip-rule="evenodd" d="M302.529 203.629C304.969 204.381 305.534 220.907 315.62 223.456C325.706 226.005 324.577 238.067 334.577 235.831C344.577 233.595 343.982 204.046 329.705 199.623C326.186 198.533 324.009 198.828 323.174 200.508L321.936 203.229L313.333 204.055L310.273 201.468C309.074 200.828 307.9 200.508 306.75 200.508C305.025 200.508 303.222 201.468 302.529 203.629Z" fill="url(#paint11_linear)"/>
<path fill-rule="evenodd" clip-rule="evenodd" d="M307.874 200.593C311.178 203.191 313.744 205.872 315.572 208.635C320.2 216.972 333.597 218.045 335.203 211.087C336.274 206.449 334.904 203.166 331.092 201.238C327.748 199.884 325.584 199.325 324.6 199.561C323.987 199.709 323.247 200.882 322.901 201.238C321.133 203.058 314.249 203.01 311.99 202.111C310.485 201.512 309.113 201.006 307.874 200.593Z" fill="#0B4651"/>
<path d="M348.582 327.432C348.63 327.415 348.678 327.398 348.727 327.384C349.846 327.056 351.019 327.7 351.347 328.822L372.381 400.928C372.572 401.585 372.207 402.275 371.558 402.485C370.913 402.693 370.222 402.337 370.015 401.691L347.15 330.395C346.761 329.182 347.392 327.877 348.582 327.432Z" fill="#0B4651"/>
<path d="M287.22 327.094L259.255 393.568" stroke="#0B4651" stroke-width="1.67161" stroke-linecap="round" stroke-linejoin="round"/>
<path d="M324.844 326.15L326.674 390.663" stroke="#0B4651" stroke-width="1.67161" stroke-linecap="round" stroke-linejoin="round"/>
<path fill-rule="evenodd" clip-rule="evenodd" d="M310.232 293.713C321.326 286.884 316.46 264.191 342.277 263.029C365.219 263.029 368.828 293.713 362.631 309.426C356.552 322.102 350.449 339.494 319.321 339.494C299.229 339.494 280.45 333.799 262.985 322.41C262.985 311.457 266.476 304.59 273.458 301.808C283.931 297.635 299.138 300.542 310.232 293.713Z" fill="#7DD977"/>
<path opacity="0.12" fill-rule="evenodd" clip-rule="evenodd" d="M316.386 327.051C313.714 332.245 311.168 336.256 308.748 339.083C311.795 339.721 314.58 339.721 317.102 339.083L316.386 327.051Z" fill="#0B4651"/>
<path d="M295.327 298.517C300.7 297.659 306.038 296.294 310.232 293.713C321.326 286.884 316.46 264.191 342.277 263.029C344.103 262.947 345.821 263.052 347.431 263.345" stroke="#0B4651" stroke-width="1.67161" stroke-linecap="round" stroke-linejoin="round"/>
<path d="M318.406 326.239C319.659 326.448 320.527 327.606 320.376 328.868L311.495 403.237C311.415 403.909 310.805 404.389 310.133 404.309C310.133 404.309 310.132 404.309 310.132 404.309C309.455 404.228 308.965 403.621 309.028 402.941L315.957 328.127C316.065 326.966 317.093 326.112 318.254 326.219C318.305 326.224 318.356 326.231 318.406 326.239Z" fill="#0B4651"/>
<path opacity="0.2" fill-rule="evenodd" clip-rule="evenodd" d="M376.858 165.867C376.907 183.416 380.586 192.19 387.895 192.19C398.857 192.19 404.684 181.135 404.799 171.513C404.875 165.098 395.562 163.216 376.858 165.867Z" fill="#0B4651"/>
<path fill-rule="evenodd" clip-rule="evenodd" d="M376.857 165.866C375.745 183.217 378.843 191.892 386.152 191.892C397.114 191.892 401.521 180.917 401.636 171.295C401.712 164.88 393.453 163.07 376.857 165.866Z" fill="#FFD7B3"/>
<path fill-rule="evenodd" clip-rule="evenodd" d="M374.968 167.827C377.869 169.502 381.186 170.339 384.919 170.339C390.52 170.339 393.247 167.865 395.639 166.719C402.045 167.827 394.474 180.333 399.051 183.402C403.627 186.472 399.233 195.091 400.618 197.079C417.154 189.456 425.871 215.042 427.895 219.027C429.807 220.03 444.882 199.199 419.212 182.285C416.127 180.253 421.925 173.615 418.135 166.719C414.022 159.233 408.578 162.182 405.023 156.887C400.05 149.483 393.034 141.815 380.343 147.472C369.579 152.271 367.787 159.056 374.968 167.827Z" fill="#0B4651"/>
<path d="M378.988 249.537L378.314 221.834" stroke="#0B4651" stroke-width="1.11441" stroke-linecap="round" stroke-linejoin="round"/>
<path d="M423.168 241.778L407.495 226.894C405.914 225.392 403.416 225.457 401.915 227.039C401.812 227.148 401.716 227.262 401.626 227.381C400.037 229.49 399.976 232.381 401.476 234.555L411.814 249.539" stroke="#0B4651" stroke-width="1.11441" stroke-linecap="round" stroke-linejoin="round"/>
<path d="M414.601 218.567L418.116 236.926" stroke="#0B4651" stroke-width="1.11441" stroke-linecap="round" stroke-linejoin="round"/>
<path d="M435.73 254.609C439.877 261.092 439.877 265.264 435.73 267.126C429.511 269.919 415.788 274.439 416.998 291.742C417.805 303.278 415.298 310.565 409.479 313.603" stroke="#0B4651" stroke-width="1.67161" stroke-linecap="round" stroke-linejoin="round"/>
<path fill-rule="evenodd" clip-rule="evenodd" d="M349.654 371.94L328.671 376.857C327.999 378.403 328.613 379.343 330.514 379.678C332.415 380.014 340.639 380.181 355.185 380.181L355.932 373.085L349.654 371.94Z" fill="#0B4651"/>
<path fill-rule="evenodd" clip-rule="evenodd" d="M410.72 371.735C406.095 373.158 403.964 375.759 404.329 379.538C409.794 380.258 415.764 380.258 422.24 379.538L420.145 371.735H410.72Z" fill="#0B4651"/>
<path d="M417.579 319.185C418.423 319.285 419.026 320.05 418.926 320.894C418.925 320.9 418.925 320.905 418.924 320.91L411.483 378.598C411.418 379.105 410.959 379.467 410.451 379.412C409.946 379.357 409.581 378.903 409.636 378.398L415.868 320.548C415.959 319.703 416.718 319.092 417.563 319.183C417.568 319.183 417.574 319.184 417.579 319.185Z" fill="#0B4651"/>
<path fill-rule="evenodd" clip-rule="evenodd" d="M71.5716 299.482C72.4328 272.099 68.0871 253.094 58.5344 242.465C53.782 244.512 49.608 265.828 55.5667 270.974C59.5392 274.405 61.734 284.74 62.1512 301.981L71.5716 299.482Z" fill="#1D9F90"/>
<path d="M60.8528 256.739C64.3443 275.122 65.7033 286.383 64.9298 290.522" stroke="#0D6574" stroke-width="1.00297"/>
<path fill-rule="evenodd" clip-rule="evenodd" d="M63.3495 291.549C72.6359 266.038 85.7867 253.167 102.802 252.936C103.685 270.677 99.5024 276.265 86.3041 279.774C73.1059 283.283 92.1349 287.622 86.3041 294.626C82.4169 299.296 76.1453 305.426 67.4893 313.018L60.9198 302.202L63.3495 291.549Z" fill="#2CB0A0"/>
<path d="M66.9235 307.737C70.1809 280.94 78.5274 264.738 91.963 259.132" stroke="#0D6574" stroke-width="1.00297"/>
<path fill-rule="evenodd" clip-rule="evenodd" d="M60.3648 307.787C60.3648 303.671 24.697 293.56 27.2827 281.336C29.8684 269.113 28.9823 255.412 8.84944 264.418C-11.2834 273.424 10.4575 233.989 1.92315 225.855C28.5282 227.109 70.7076 257.095 65.5362 307.787C60.3648 310.54 60.3648 311.903 60.3648 307.787Z" fill="#33BAAA"/>
<path d="M7.4126 229.591C41.6333 252.984 59.2468 281.158 60.2529 314.112" stroke="#0D6574" stroke-width="1.00297"/>
<path d="M82.8137 305.131H52.7499V391.604H82.8137V305.131Z" fill="#7DD977"/>
<path fill-rule="evenodd" clip-rule="evenodd" d="M52.7499 314.739H82.8137V316.217H52.7499V314.739ZM52.7499 319.173H82.8137V320.652H52.7499V319.173Z" fill="white"/>
<path fill-rule="evenodd" clip-rule="evenodd" d="M52.7499 373.127H82.8137V374.605H52.7499V373.127ZM52.7499 377.562H82.8137V379.04H52.7499V377.562Z" fill="white"/>
<path opacity="0.2" d="M82.8136 305.131H71.8147V391.604H82.8136V305.131Z" fill="#0B4651"/>
<path d="M34.632 281.292C44.0833 280.488 50.9153 282.128 55.1278 286.21C53.9277 283.301 54.7239 278.706 57.5163 272.427" stroke="#0D6574" stroke-width="1.00297"/>
<path d="M15.5226 247.949C25.6362 248.722 32.4393 250.72 35.9318 253.943" stroke="#0D6574" stroke-width="1.00297"/>
<path d="M40.7221 259.821C40.5306 252.562 41.0337 248.638 42.2312 248.05" stroke="#0D6574" stroke-width="1.00297"/>
<path d="M75.6018 276.247C82.2338 272.456 87.4508 271.508 91.2529 273.404" stroke="#0D6574" stroke-width="1.00297"/>
</g>
<defs>
<linearGradient id="paint0_linear" x1="227.066" y1="189.977" x2="177.307" y2="351.655" gradientUnits="userSpaceOnUse">
<stop stop-color="#5AB155"/>
<stop offset="1" stop-color="#14AD9B"/>
</linearGradient>
<linearGradient id="paint1_linear" x1="377.462" y1="249.553" x2="366.082" y2="309.903" gradientUnits="userSpaceOnUse">
<stop stop-color="#58B152"/>
<stop offset="1" stop-color="#33BAAA"/>
</linearGradient>
<linearGradient id="paint2_linear" x1="432.059" y1="232.426" x2="413.138" y2="315.378" gradientUnits="userSpaceOnUse">
<stop stop-color="#7ECC79"/>
<stop offset="1" stop-color="#33BAAA"/>
</linearGradient>
<linearGradient id="paint3_linear" x1="432.658" y1="248.652" x2="420.922" y2="266.531" gradientUnits="userSpaceOnUse">
<stop stop-color="#43993D"/>
<stop offset="1" stop-color="#289F91"/>
</linearGradient>
<linearGradient id="paint4_linear" x1="280.433" y1="375.348" x2="279.031" y2="392.712" gradientUnits="userSpaceOnUse">
<stop stop-color="#7ECC79"/>
<stop offset="1" stop-color="#33BAAA"/>
</linearGradient>
<linearGradient id="paint5_linear" x1="199.588" y1="377.889" x2="198.625" y2="394.956" gradientUnits="userSpaceOnUse">
<stop stop-color="#7ECC79"/>
<stop offset="1" stop-color="#33BAAA"/>
</linearGradient>
<linearGradient id="paint6_linear" x1="343.075" y1="193.477" x2="334.397" y2="238.45" gradientUnits="userSpaceOnUse">
<stop stop-color="#7ECC79"/>
<stop offset="1" stop-color="#23A394"/>
</linearGradient>
<linearGradient id="paint7_linear" x1="314.689" y1="143.786" x2="311.212" y2="177.211" gradientUnits="userSpaceOnUse">
<stop stop-color="#7ECC79"/>
<stop offset="1" stop-color="#33BAAA"/>
</linearGradient>
<linearGradient id="paint8_linear" x1="302.833" y1="170.727" x2="300.571" y2="186.105" gradientUnits="userSpaceOnUse">
<stop stop-color="#56B450"/>
<stop offset="1" stop-color="#33BAAA"/>
</linearGradient>
<linearGradient id="paint9_linear" x1="300.083" y1="170.727" x2="297.863" y2="185.819" gradientUnits="userSpaceOnUse">
<stop stop-color="#BAFFB5"/>
<stop offset="1" stop-color="#3CD8C5"/>
</linearGradient>
<linearGradient id="paint10_linear" x1="306.158" y1="155.357" x2="289.032" y2="291.814" gradientUnits="userSpaceOnUse">
<stop stop-color="#7ECC79"/>
<stop offset="1" stop-color="#33BAAA"/>
</linearGradient>
<linearGradient id="paint11_linear" x1="324.934" y1="188.519" x2="319.829" y2="232.943" gradientUnits="userSpaceOnUse">
<stop stop-color="#5AB155"/>
<stop offset="1" stop-color="#14AD9B"/>
</linearGradient>
<clipPath id="clip0">
<rect width="490" height="412" fill="white"/>
</clipPath>
</defs>
</svg>
